<svg id="OBJECTS" xmlns="http://www.w3.org/2000/svg" viewBox="0 0 463.35003 339.3473"><defs><style>.cls-1{fill:#bbe2f2;}.cls-2{fill:#1c31b5;}.cls-3{fill:#009cf8;}.cls-4{fill:#006bde;}.cls-5{fill:#18315b;}.cls-6{fill:#000b29;}.cls-7{fill:#f97853;}.cls-8{fill:#ea5143;}.cls-9{fill:#ffa681;}.cls-10{fill:#fff;}.cls-11{fill:#264cbe;}.cls-12{fill:#e3e3e3;}.cls-13{fill:#1d567e;}</style></defs><title>kolaborasi</title><path class="cls-1" d="M216.78679,158.1045c-15.6272-56.6892-86.0482-74.9512-126.40579-32.584q-.86926.9126-1.73721,1.8558C30.7849,190.2713,58.118,345.2631,178.86759,384.5468c120.7498,39.2837,246.3463-32.452,253.4023-96.579,7.0558-64.1269-48.6524-84.2767-135.1051-66.345C248.32079,231.7538,226.51519,193.3952,216.78679,158.1045Z" transform="translate(-15.7247 -85.3277)"/><path class="cls-1" d="M317.23459,167.8012c-16.1557,2.6302-20.6333,16.9436-8.1589,27.0979,4.123,3.3563,10.01131,6.1446,18.39931,7.5362,31.95429,5.3012,48.91059-8.8365,36.10229-27.1668C355.672,163.9549,333.24529,165.1945,317.23459,167.8012Z" transform="translate(-15.7247 -85.3277)"/><path class="cls-1" d="M59.63549,282.3448c-10.0438-12.9246-24.754-10.0032-27.69679,5.8101-.9727,5.2266-.6017,11.7312,2.1924,19.7617,10.644,30.5922,31.174,38.7105,41.13509,18.6898C81.41419,314.2495,69.58919,295.1534,59.63549,282.3448Z" transform="translate(-15.7247 -85.3277)"/><path class="cls-1" d="M443.658,295.421c-1.48811,7.7912,4.94518,13.3099,12.23478,10.3074a15.42488,15.42488,0,0,0,7.0019-6.2688c8.2364-12.8126,4.0648-23.8033-7.403-22.6751C448.41358,277.4808,445.13268,287.6998,443.658,295.421Z" transform="translate(-15.7247 -85.3277)"/><path class="cls-1" d="M402.81529,213.2035c7.7646,1.6206,13.3922-4.7177,10.5143-12.0574a15.42446,15.42446,0,0,0-6.1485-7.1078c-12.6704-8.4534-23.7306-4.4698-22.798,7.0156C384.95869,208.1428,395.12029,211.5975,402.81529,213.2035Z" transform="translate(-15.7247 -85.3277)"/><path class="cls-1" d="M214.08949,129.8302c6.1478,5.0121,14.0608,1.9747,14.8836-5.866a15.42575,15.42575,0,0,0-2.1877-9.14c-7.3587-13.336-19.01139-14.8892-23.469-4.2631C200.56509,117.1196,207.99689,124.8631,214.08949,129.8302Z" transform="translate(-15.7247 -85.3277)"/><path class="cls-2" d="M462.90908,334.3962c12.3288-12.3939,21.7181-26.4005,12.3782-28.5842-9.3488-2.1858-25.0502,22.2231-27.7862,44.4404l-2.73808,7.3349c2.27658-16.1564-3.25941-35.8355-11.36451-36.6465-8.0537-.8057-3.1791,11.9594,3.2178,22.8761,4.8693,8.31,6.1526,14.8659,6.4731,18.2539l-12.9321,34.6434c3.5324-25.5949-5.2382-56.6481-18.0625-57.9311-12.7794-1.2784-5.0445,18.9764,5.1055,36.2981,7.6703,13.0898,9.73471,23.4432,10.262,28.8526l-2.5785,6.9075q1.69155.95235,3.3936,1.8845l15.3855-41.2156a49.71585,49.71585,0,0,1,13.89211-7.0649c11.98558-4.0546,24.03248-10.5031,17.42058-15.1719-5.7379-4.0518-19.228,3.7473-28.51958,14.7542l5.32078-14.2536C454.17538,345.6455,457.58808,339.7453,462.90908,334.3962Z" transform="translate(-15.7247 -85.3277)"/><path class="cls-2" d="M74.27189,172.699c1.5987-14.9693.3539-29.437-7.0956-25.8688-7.4566,3.5715-4.8435,28.4278,5.2954,44.8231l2.1151,6.4019c-7.1803-12.0774-21.5062-22.3091-27.38649-18.4847-5.843,3.8003,4.31179,9.7453,14.49239,13.6283,7.7496,2.956,12.1454,6.667,14.1869,8.7695l9.9899,30.2366c-11.4248-19.093-34.0542-35.2195-43.35819-29.1682-9.2714,6.0302,6.84149,15.4633,22.99529,21.6246,12.2072,4.656,19.1747,10.4963,22.4447,13.8448l1.9919,6.0288q1.6494-.2721,3.2949-.5637l-11.885-35.9728a42.81436,42.81436,0,0,1,5.5212-12.2332c5.8635-9.1838,10.4778-20.0083,3.5208-19.5796-6.0376.372-10.89309,12.8815-11.1997,25.2821l-4.1102-12.4405A62.20456,62.20456,0,0,1,74.27189,172.699Z" transform="translate(-15.7247 -85.3277)"/><path class="cls-3" d="M379.68419,375.5694c.1567.8484.3383,1.7736.5499,2.7579l.0003.0023c2.2195,10.3219,7.6697,27.218,19.9329,30.5408,0,0-6.6749-34.8041,17.1151-43.8686s21.1591-17.6956,19.7994-33.0586-6.6167-18.2924,9.89009-32.6831,13.3498-35.8258,13.3498-35.8258-15.6219,24.4738-32.30719,25.0415-19.6076,14.8123-18.8964,25.4048-13.4592,11.79-21.1267,17.934-9.1118,38.4078-9.1118,38.4078S379.091,372.3315,379.68419,375.5694Z" transform="translate(-15.7247 -85.3277)"/><path class="cls-4" d="M379.68419,375.5694c.1567.8484.3383,1.7736.5499,2.7579a52.72628,52.72628,0,0,1,6.3697-12.867c5.3361-7.9066,12.8515-14.4016,19.6108-16.9506,10.7622-4.0552,16.0176-14.6109,17.0361-34.2279.5899-11.3864,12.5025-18.1124,12.6249-18.1776a.72286.72286,0,0,0-.6992-1.2654c-.5198.2869-12.7365,7.1708-13.3693,19.3671-.9834,18.9636-5.9495,29.1278-16.1015,32.9543-7.1317,2.6871-14.7212,9.2262-20.3002,17.4913A54.80287,54.80287,0,0,0,379.68419,375.5694Z" transform="translate(-15.7247 -85.3277)"/><path class="cls-4" d="M116.35809,408.6806h16.7165c-9.0329-1.4934-31.42759-11.1074-33.4245-30.3864-2.5293-24.4188-11.2248-24.1139-25.8763-26.6674s-18.688,1.6157-27.99079-17.342c-9.3027-18.9575-30.0583-21.3467-30.0583-21.3467s18.9169,20.6406,15.2966,36.3272,8.9244,21.9514,18.97009,23.9229,7.6375,15.4715,11.455,24.143c1.7421,3.957,8.8727,8.0588,16.1114,11.3494Z" transform="translate(-15.7247 -85.3277)"/><path class="cls-2" d="M80.14859,384.6434c.73,7.3126,4.9351,16.0096,11.2481,23.2628.2221.2552.4529.5139.6885.7744h1.9024c-.5442-.5731-1.0597-1.1388-1.5393-1.6897-6.0394-6.9378-10.2218-15.5547-10.9158-22.4862-1.1018-11.0353-9.62949-18.5566-27.6529-24.3838C43.4178,356.7398,40.1138,343.9685,40.0834,343.8383a.697.697,0,0,0-1.3528.3367c.138.5557,3.5136,13.6495,14.71929,17.272C70.87339,367.0791,79.10819,374.2335,80.14859,384.6434Z" transform="translate(-15.7247 -85.3277)"/><path class="cls-3" d="M125.37409,363.362c-.3539,1.1863-.7553,2.4782-1.2084,3.8498l-.0008.0034c-4.753,14.3837-14.5032,38.6104-32.5084,41.4654,0,0,14.2502-49.5854-18.2946-66.1738s-27.46479-28.4966-23.1633-50.2041,12.2511-25.0783-9.08479-48.1452-13.5371-53.1603-13.5371-53.1603,18.5235,37.315,42.23909,40.6899,25.6946,24.145,23.0517,39.1466,17.3881,18.8884,27.3819,28.832,7.0945,56.1922,7.0945,56.1922S126.71809,358.8342,125.37409,363.362Z" transform="translate(-15.7247 -85.3277)"/><path class="cls-4" d="M125.37409,363.362c-.3539,1.1863-.7553,2.4782-1.2084,3.8498a75.65319,75.65319,0,0,0-7.1089-19.3348c-6.397-12.0996-16.1197-22.5205-25.3705-27.1959-14.7298-7.4394-20.6044-23.3059-19.0417-51.4475.9088-16.3343-15.0514-27.7606-15.2159-27.8724a1.03719,1.03719,0,0,1,1.192-1.6977c.69731.4891,17.0671,12.1875,16.095,29.6838-1.5122,27.2041,4.0098,42.4675,17.9041,49.4868,9.7609,4.9296,19.5826,15.4248,26.2709,28.0733A78.63148,78.63148,0,0,1,125.37409,363.362Z" transform="translate(-15.7247 -85.3277)"/><path class="cls-5" d="M138.28269,397.0204c.0555,3.7695.12331,7.6928.2057,11.6602h36.3597c.0694-4.3429.1225-8.5055.1623-12.4104.1095-10.5828.12161-19.2923.1135-24.7053-.004-3.8399-.0203-6.0172-.0203-6.0172l-37.0763-.3932s0,3.2031.0284,8.4418C138.08,379.419,138.14469,387.7554,138.28269,397.0204Z" transform="translate(-15.7247 -85.3277)"/><path class="cls-6" d="M138.05569,373.5963c.02431,5.8227.0891,14.1591.227,23.4242a182.1819,182.1819,0,0,0,36.7276-.7502c.1096-10.5828.12171-19.2924.1136-24.7054Z" transform="translate(-15.7247 -85.3277)"/><path class="cls-5" d="M92.46029,388.6597c.0409,5.9266.1114,12.7159.2285,20.0209h36.3634c.0896-4.2771.1623-8.5025.2209-12.54.1257-8.6649.1905-16.4663.22291-22.0739.02839-5.5185.02839-8.9122.02839-8.9122l-37.0925.3932s-.0284,3.9331-.0203,10.5504C92.41159,379.5973,92.42779,383.8426,92.46029,388.6597Z" transform="translate(-15.7247 -85.3277)"/><path class="cls-6" d="M92.41159,376.0981c0,3.4992.0162,7.7445.0487,12.5616a227.28187,227.28187,0,0,0,36.8128,7.4809c.1258-8.6649.1905-16.4663.22291-22.0739Z" transform="translate(-15.7247 -85.3277)"/><path class="cls-5" d="M153.36569,170.0806s5.8432-5.6268,5.8236-11.1839-3.797-3.9153-5.8236-9.0935-8.04969-8.3358-11.3531-7.7043c-3.3033.6317-10.27659-12.2509-19.7355-9.9775s-8.6357,14.3981-12.71,16.1661c-4.0743,1.7683-2.9376,8.9673-.7905,10.6092s3.0556,8.2398,4.2638,8.0912S153.36569,170.0806,153.36569,170.0806Z" transform="translate(-15.7247 -85.3277)"/><path class="cls-7" d="M114.04129,169.9476s-3.6735-4.8978-6.405-.8477,1.1303,16.0125,7.8178,13.0925Z" transform="translate(-15.7247 -85.3277)"/><path class="cls-8" d="M113.994,178.4957a.56588.56588,0,0,1-.544-.4127c-1.03641-3.6931-4.86251-5.1904-4.90111-5.2051a.56515.56515,0,0,1,.4004-1.057c.1788.0675,4.3953,1.7039,5.5891,5.9568a.56579.56579,0,0,1-.54439.718Z" transform="translate(-15.7247 -85.3277)"/><path class="cls-8" d="M110.13179,176.6353a.56516.56516,0,0,1-.4747-.8711,5.15764,5.15764,0,0,1,2.1213-1.7099.565.565,0,0,1,.4614,1.0316,4.08965,4.08965,0,0,0-1.6324,1.2903A.5646.5646,0,0,1,110.13179,176.6353Z" transform="translate(-15.7247 -85.3277)"/><path class="cls-7" d="M151.89869,169.9476s3.6734-4.8978,6.405-.8477-1.1304,16.0125-7.8179,13.0925Z" transform="translate(-15.7247 -85.3277)"/><path class="cls-8" d="M151.946,178.4957a.56569.56569,0,0,0,.54389-.4127c1.0365-3.6931,4.8625-5.1904,4.9012-5.2051a.56517.56517,0,0,0-.4005-1.057c-.1787.0675-4.3952,1.7039-5.5891,5.9568a.56587.56587,0,0,0,.54451.718Z" transform="translate(-15.7247 -85.3277)"/><path class="cls-8" d="M155.80819,176.6353a.56522.56522,0,0,0,.4747-.8711,5.1585,5.1585,0,0,0-2.1213-1.7099.565.565,0,0,0-.4614,1.0316,4.08978,4.08978,0,0,1,1.6323,1.2903A.56465.56465,0,0,0,155.80819,176.6353Z" transform="translate(-15.7247 -85.3277)"/><path class="cls-9" d="M142.01259,192.3387V204.235s-3.5477,6.0586-8.3455,6.471c-4.7929.4183-9.05209-5.2163-9.05209-5.2163V193.1752Z" transform="translate(-15.7247 -85.3277)"/><path class="cls-7" d="M142.01259,192.3387v5.2786c-3.2194,3.5725-8.9369,4.4647-17.39759,3.2156v-7.6577Z" transform="translate(-15.7247 -85.3277)"/><path class="cls-9" d="M154.55489,161.7869a115.77055,115.77055,0,0,1-1.543,15.0273c-.2203,1.1529-.46889,2.238-.746,3.21-2.5036,8.7654-8.7654,23.7984-26.2962,17.5364-7.7425-2.7635-11.3313-11.3875-12.9306-20.1587a84.79946,84.79946,0,0,1-1.1698-16.2761,12.41944,12.41944,0,0,1,6.3014-10.5683c10.3479-5.8662,21.2665-3.6791,28.4551-.9156A12.37968,12.37968,0,0,1,154.55489,161.7869Z" transform="translate(-15.7247 -85.3277)"/><path class="cls-5" d="M113.04039,177.4006s1.7011,10.1354,3.3078,13.8298c1.6102,3.6942,5.9989,4.3909,7.6473,7.5133,2.35051,4.4524,5.9349,7.9806,11.8297,5.8306,4.90481-1.789,4.6831-4.2969,7.4306-6.2371,4.7078-3.3243,7.04121-6.9819,7.2308-10.0131.18941-3.031,2.5272-11.5108,2.5272-11.5108l-2.5272-.178a65.757,65.757,0,0,1-3.5579,6.2669c-2.1256-4.6679-12.3671-1.2731-12.3671-1.2731l-1.9551.6328-2.0082-.6328s-10.3627-3.251-12.4087,1.6444a18.4612,18.4612,0,0,1-2.73559-6.3579Zm19.5661,6.4412c11.7458-2.0156,9.6466,4.8612,9.571,5.1076v.0037l-.0039.0039a11.63135,11.63135,0,0,1-2.4135,1.83c-4.5506,2.459-5.04309,2.0878-6.83909,2.1673a13.50613,13.50613,0,0,1-6.90341-1.8832,19.61573,19.61573,0,0,1-3.2889-2.5007S120.88349,182.2619,132.60649,183.8418Z" transform="translate(-15.7247 -85.3277)"/><path class="cls-5" d="M125.54659,171.5003c0,1.27-.6544,2.2994-1.4618,2.2994s-1.4619-1.0294-1.4619-2.2994c0-1.2698.6546-2.2993,1.4619-2.2993S125.54659,170.2305,125.54659,171.5003Z" transform="translate(-15.7247 -85.3277)"/><path class="cls-5" d="M142.92489,171.5003c0,1.27-.6546,2.2994-1.46189,2.2994s-1.46191-1.0294-1.46191-2.2994c0-1.2698.6545-2.2993,1.46191-2.2993S142.92489,170.2305,142.92489,171.5003Z" transform="translate(-15.7247 -85.3277)"/><path class="cls-5" d="M147.21719,163.9287s-6.0406-2.3872-10.6916-.3779l.4652,2.5866s6.82621-.5772,10.2658.8165A4.48855,4.48855,0,0,0,147.21719,163.9287Z" transform="translate(-15.7247 -85.3277)"/><path class="cls-5" d="M118.496,163.9406s6.085-2.405,10.77039-.3809l-.4686,2.6058s-6.8766-.5816-10.3416.8224A4.52081,4.52081,0,0,1,118.496,163.9406Z" transform="translate(-15.7247 -85.3277)"/><path class="cls-7" d="M133.16639,181.1366a6.02483,6.02483,0,0,0,2.04561-.4308.5651.5651,0,0,0-.42731-1.0463,3.39377,3.39377,0,0,1-2.2668.214.61358.61358,0,0,1-.278-.5262,85.54725,85.54725,0,0,1,.3416-8.6552.56505.56505,0,0,0-1.1263-.0927,83.72834,83.72834,0,0,0-.3394,8.8643,1.72564,1.72564,0,0,0,.8218,1.3798A2.38282,2.38282,0,0,0,133.16639,181.1366Z" transform="translate(-15.7247 -85.3277)"/><path class="cls-10" d="M125.96159,184.9726c.4288,2.1586,1.855,6.1302,6.6589,6.1302,4.8159,0,6.1662-3.6293,6.6303-6.1302Z" transform="translate(-15.7247 -85.3277)"/><path class="cls-5" d="M154.55489,161.7869a115.77055,115.77055,0,0,1-1.543,15.0273l-2.5261-.1789s.6121-3.9034.8947-6.4465.76251-7.2967-1.4076-7.8901c-2.1647-.5878-.8944-6.0106-3.9065-8.3617-3.01239-2.3566-9.7036-4.4308-14.1457-1.6954-4.442,2.7297-9.4945,1.2207-11.5403,1.6954-2.0515.4691-4.832,3.2949-4.08039,5.9341.75729,2.6335-1.50321,4.2386-2.05141,6.9683s1.2037,10.0765,1.2037,10.0765l-2.4132.486a84.79946,84.79946,0,0,1-1.1698-16.2761,12.41944,12.41944,0,0,1,6.3014-10.5683c10.3479-5.8662,21.2665-3.6791,28.4551-.9156A12.37968,12.37968,0,0,1,154.55489,161.7869Z" transform="translate(-15.7247 -85.3277)"/><path class="cls-4" d="M182.78709,383.4238a201.03523,201.03523,0,0,1-34.3126,5.6306c-.5191.0378-1.0333.0756-1.55249.1109q-2.35907.1587-4.71821.2621a194.70827,194.70827,0,0,1-23.3539-.3957q-2.3553-.1815-4.7081-.4209-.75225-.07185-1.5072-.1588A204.48367,204.48367,0,0,1,84.744,383.4238c-.09321-8.5693.01259-35.6609.53939-65.0411.0605-3.5311.1285-7.0949.2067-10.6638.8241-38.7207,2.4145-78.0261,5.2751-81.963,2.7422-3.7679,11.0066-8.5567,18.908-12.8766q.707-.38565,1.4114-.7687c1.7769-.9653,3.51341-1.9004,5.1466-2.7876,3.5009-1.9054,6.5203-3.5991,8.3854-4.9072v1.0762s4.25441,5.6306,9.0482,5.2147c4.3703-.3755,7.69721-5.4239,8.2618-6.3287a110.91486,110.91486,0,0,0,10.0563,5.7213c1.1947.6326,2.4297,1.2804,3.6899,1.9483q.69555.3666,1.3988.741c8.7382,4.6349,18.15941,9.8597,20.9873,13.7436a4.80116,4.80116,0,0,1,.6049,1.4291c1.6735,5.6658,2.7119,24.4679,3.3445,47.2371l.0076.247c.0277.9199.0504,1.8474.07311,2.78.005.121.00749.2445.01.3679.20669,7.9872.363,16.3951.484,24.8435.01.6704.02259,1.3409.03019,2.0113.0025.3377.0076.6704.0101,1.0081q.04157,2.49525.0605,4.9828.0264,1.8336.0428,3.6647C183.04169,345.6407,182.91309,374.4462,182.78709,383.4238Z" transform="translate(-15.7247 -85.3277)"/><path class="cls-11" d="M182.089,278.2254c-2.75231-4.4939-5.70621-9.081-8.48871-13.1388a.21775.21775,0,0,1-.0202-.0302c-1.1694-1.7038-2.30609-3.3118-3.3874-4.7812a.5827.5827,0,0,0-.0554-.0756c-.3378-.4613-.673-.9099-1.0006-1.3459a.83652.83652,0,0,1-.1185-.2369l-.0025-.0026a.75921.75921,0,0,1,1.33331-.6729c3.342,4.4283,7.61659,10.7948,11.65929,17.2571l.0076.247C182.04359,276.3653,182.06629,277.2928,182.089,278.2254Z" transform="translate(-15.7247 -85.3277)"/><path class="cls-4" d="M178.17629,225.9071s17.2446,31.5945,27.7568,47.6066c0,0,5.9782-5.492,13.7527-12.8388,8.4299-7.9661,19.9591-21.2793,19.9591-21.2793l6.3798,7.5661s-25.9038,46.6152-37.5225,52.4736c-11.6191,5.8587-33.0294-35.6075-33.0294-35.6075Z" transform="translate(-15.7247 -85.3277)"/><path class="cls-11" d="M105.15989,350.4268l-.0282-.0003a.77991.77991,0,0,1-.75169-.8075c.90439-25.5146-12.32611-33.7812-12.45981-33.8615a.78.78,0,0,1,.8004-1.3391c.1471.0875,3.6446,2.2124,7.0321,7.6567,3.0924,4.9702,6.6757,13.7927,6.186,27.5995A.77974.77974,0,0,1,105.15989,350.4268Z" transform="translate(-15.7247 -85.3277)"/><path class="cls-11" d="M161.60349,326.3891a.78034.78034,0,0,1-.777-.7194c-.4187-5.3731,1.3511-9.2923,3.5919-14.2539.6555-1.4515,1.3333-2.9522,2.0272-4.6355,4.3486-10.547,2.1632-22.6063,2.1406-22.7269a.78.78,0,1,1,1.5333-.287c.0956.5109,2.2914,12.6382-2.2317,23.6088-.7037,1.707-1.387,3.2194-2.0477,4.6826-2.2328,4.944-3.8458,8.5163-3.4582,13.4908a.78.78,0,0,1-.7171.8382C161.64419,326.3883,161.62359,326.3891,161.60349,326.3891Z" transform="translate(-15.7247 -85.3277)"/><path class="cls-10" d="M116.23069,209.3225c.3334,2.5122.8221,5.7707,1.3564,9.4724.16291,1.0988.32591,2.2393.4925,3.4101.5419,3.823,1.1026,7.9832,1.5801,12.1889.1289,1.1292.2501,2.2622.3636,3.3913.4208,4.1639.739,8.3015.8526,12.1473.0379,1.1633.053,2.2999.0455,3.4025a54.13051,54.13051,0,0,1-.5266,7.9416q-.34125,2.18805-.6062,4.2778-.22185,1.7334-.398,3.4099c-.45459,4.3385-.682,8.3775-.7463,12.1854q-.0285,1.7334-.0114,3.3986c.034,4.3232.2803,8.3509.6365,12.1853.1061,1.148.2235,2.2771.3448,3.3911.4661,4.1906,1.0344,8.1803,1.5687,12.1247q.233,1.69365.4546,3.3797c.2311,1.8035.4509,3.607.6403,5.4221.2008,1.9247.3297,4.1753.3903,6.6722.0303,1.0912.0454,2.2317.0493,3.4101.0152,3.7321-.0797,7.8658-.2539,12.189q-.0681,1.6938-.15149,3.429c-.19331,4.0163-.44711,8.1462-.73131,12.2232q-.125,1.722-.2538,3.4251c-.3145,4.2437-.6632,8.3775-1.0156,12.2232-.1061,1.167-.2121,2.3075-.3182,3.4138-.4055,4.2323-.7995,7.9948-1.1443,10.9956a194.52581,194.52581,0,0,0,23.35521.394c.18169-3.194.67809-8.347,1.16689-14.4131.0909-1.1101.17811-2.2544.2652-3.4214.2918-3.8572.557-7.9795.7313-12.1398.0493-1.1405.0909-2.2848.1212-3.4253.1175-4.1527.12141-8.2788-.0568-12.1473-.053-1.1746-.1212-2.3226-.2121-3.4404-.091-1.1442-.2008-2.2582-.3334-3.3343a67.964,67.964,0,0,1-.5001-8.8434c.0037-1.1442.034-2.2808.087-3.4213.1782-3.9557.61-7.919,1.1102-12.1285.13261-1.1177.2727-2.2545.413-3.4138.4508-3.7435.9207-7.7143,1.292-12.0603.0985-1.114.18561-2.2543.269-3.4214.25761-3.7283.432-7.7333.4585-12.0981q.01125-1.6881-.0114-3.4479c-.0416-3.7777-.2007-7.8204-.5077-12.174-.0266-.3864-.0531-.7767-.0833-1.1707-.057-.7616-.1061-1.5307-.1403-2.2999a115.84173,115.84173,0,0,1,.07581-12.1284q.091-1.71645.22359-3.4328c.3145-4.077.773-8.116,1.3033-11.9883.1554-1.1518.3183-2.2923.485-3.4138.6367-4.2436,1.3224-8.2371,1.9514-11.8064.2085-1.1745.4092-2.3036.5986-3.3797.4282-2.4097.7995-4.5581,1.0723-6.3768a111.16254,111.16254,0,0,1-10.0559-5.7214c-.5646.9056-3.89129,5.9525-8.2636,6.3277-4.7931.4166-9.0481-5.2137-9.0481-5.2137v-1.0761C122.75139,205.723,119.73159,207.4166,116.23069,209.3225Z" transform="translate(-15.7247 -85.3277)"/><path class="cls-12" d="M117.58709,218.7949c.16291,1.0988.32591,2.2393.4925,3.4101a63.29285,63.29285,0,0,0,15.4362-1.9514,41.11713,41.11713,0,0,1,16.7965-.3978c.2085-1.1745.4092-2.3036.5986-3.3797a44.52778,44.52778,0,0,0-18.1604.4585A59.25942,59.25942,0,0,1,117.58709,218.7949Z" transform="translate(-15.7247 -85.3277)"/><path class="cls-12" d="M119.65969,234.3939c.1289,1.1292.2501,2.2622.3636,3.3913a68.7352,68.7352,0,0,0,13.4925-1.9476,41.05682,41.05682,0,0,1,14.3601-.7616c.1554-1.1518.3183-2.2923.485-3.4138a44.75558,44.75558,0,0,0-15.6104.8526A65.61,65.61,0,0,1,119.65969,234.3939Z" transform="translate(-15.7247 -85.3277)"/><path class="cls-12" d="M120.87589,249.9325c.0379,1.1633.053,2.2999.0455,3.4025a71.52889,71.52889,0,0,0,12.5944-1.9135,41.27964,41.27964,0,0,1,12.83321-.9244q.091-1.71645.22359-3.4328a44.92775,44.92775,0,0,0-13.8221,1.0344A69.62024,69.62024,0,0,1,120.87589,249.9325Z" transform="translate(-15.7247 -85.3277)"/><path class="cls-12" d="M119.39059,268.9643a67.28651,67.28651,0,0,0,14.1252-1.9589,41.17907,41.17907,0,0,1,12.981-.9093c-.0266-.3864-.0531-.7767-.0833-1.1707-.057-.7616-.1061-1.5307-.1403-2.2999a44.906,44.906,0,0,0-13.5227,1.0572,65.80468,65.80468,0,0,1-12.9619,1.8717Q119.56674,267.2878,119.39059,268.9643Z" transform="translate(-15.7247 -85.3277)"/><path class="cls-12" d="M118.63289,284.5483a64.86157,64.86157,0,0,0,14.8829-1.9589,41.26337,41.26337,0,0,1,13.5001-.8714q.01125-1.6881-.0114-3.4479a44.91247,44.91247,0,0,0-14.254.9964,62.35445,62.35445,0,0,1-14.1062,1.8832Q118.61579,282.8831,118.63289,284.5483Z" transform="translate(-15.7247 -85.3277)"/><path class="cls-12" d="M119.26939,296.7336c.1061,1.148.2235,2.2771.3448,3.3911a67.72006,67.72006,0,0,0,13.9016-1.9514,41.18488,41.18488,0,0,1,12.7726-.9358c.0985-1.114.18561-2.2543.269-3.4214a44.823,44.823,0,0,0-13.8069,1.0343A64.482,64.482,0,0,1,119.26939,296.7336Z" transform="translate(-15.7247 -85.3277)"/><path class="cls-12" d="M121.18289,312.2494q.233,1.69365.4546,3.3797a73.81918,73.81918,0,0,0,11.8783-1.8716,41.46092,41.46092,0,0,1,11.0676-1.0459c.13261-1.1177.2727-2.2545.413-3.4138a45.125,45.125,0,0,0-12.2459,1.1367A70.9837,70.9837,0,0,1,121.18289,312.2494Z" transform="translate(-15.7247 -85.3277)"/><path class="cls-12" d="M122.66809,327.7234c.0303,1.0912.0454,2.2317.0493,3.4101a76.73707,76.73707,0,0,0,10.7984-1.796,41.85766,41.85766,0,0,1,9.8704-1.0761c.0037-1.1442.034-2.2808.087-3.4213a45.41248,45.41248,0,0,0-10.7227,1.1782A76.25909,76.25909,0,0,1,122.66809,327.7234Z" transform="translate(-15.7247 -85.3277)"/><path class="cls-12" d="M122.312,346.7515a76.61669,76.61669,0,0,0,11.20379-1.8301,41.3621,41.3621,0,0,1,10.916-1.0419c-.053-1.1746-.1212-2.3226-.2121-3.4404a45.29514,45.29514,0,0,0-11.4692,1.1594,74.54662,74.54662,0,0,1-10.287,1.724Q122.39539,345.0163,122.312,346.7515Z" transform="translate(-15.7247 -85.3277)"/><path class="cls-12" d="M121.32689,362.3998a73.28825,73.28825,0,0,0,12.1889-1.8944,41.559,41.559,0,0,1,10.8516-1.0533c.0493-1.1405.0909-2.2848.1212-3.4253a45.253,45.253,0,0,0-11.7381,1.1557,71.56107,71.56107,0,0,1-11.1698,1.7922Q121.45574,360.6967,121.32689,362.3998Z" transform="translate(-15.7247 -85.3277)"/><path class="cls-12" d="M119.99309,378.0368a68.78533,68.78533,0,0,0,13.5227-1.9475,41.51131,41.51131,0,0,1,9.8551-1.076c.0909-1.1101.17811-2.2544.2652-3.4214a45.22513,45.22513,0,0,0-10.8856,1.1745,67.84054,67.84054,0,0,1-12.4392,1.8566C120.20519,375.79,120.09919,376.9305,119.99309,378.0368Z" transform="translate(-15.7247 -85.3277)"/><path class="cls-11" d="M146.92119,389.165c.519-.034,1.0343-.0719,1.5535-.1098,3.0689-18.043,1.2996-44.5278.6402-52.6438-.68189-8.4266.629-19.263,3.5958-29.7205,2.3036-8.1235.8904-26.9583-.2425-42.0914-.3184-4.2474-.6215-8.2598-.7994-11.5562-.5797-10.6546,3.2773-30.3723,5.403-40.2539-.4699-.2501-.9359-.4962-1.3981-.7426-2.1294,9.783-6.1268,29.9479-5.5206,41.0798.18191,3.3115.485,7.3316.8034,11.5866,1.1252,15.0157,2.5271,33.699.2992,41.561-3.016,10.628-4.3458,21.6576-3.64869,30.2584C148.26249,344.66,150.04329,371.3114,146.92119,389.165Z" transform="translate(-15.7247 -85.3277)"/><path class="cls-11" d="M115.48419,315.7503c1.8035,11.094,1.2352,18.3007.576,26.6401-.21219,2.6978-.432,5.4827-.5873,8.5593-.4811,9.6541-2.1143,29.0953-2.838,37.503.50411.0568,1.0042.1098,1.50811.1591.72359-8.4077,2.36059-27.898,2.84549-37.5864.15151-3.0539.3713-5.8311.58351-8.5137.663-8.4381,1.23889-15.7279-.59481-27.0039-.3904-2.4211-.80719-4.8762-1.2201-7.3203-2.0423-12.0905-4.1566-24.5939-3.1562-30.5843.2424-1.4625.5532-3.1221.8866-4.8801,1.3564-7.2294,3.05-16.2243,2.5159-24.0295-.5305-7.7371-3.7018-28.6862-4.9182-36.5823-.4697.2538-.9395.5115-1.41319.769,1.26929,8.2563,4.30419,28.4021,4.81949,35.9154.5191,7.6121-1.1518,16.5048-2.493,23.6469-.3336,1.7658-.6481,3.4328-.8942,4.9105-1.0382,6.2405,1.0002,18.3082,3.1599,31.0884C114.67729,310.8815,115.09019,313.333,115.48419,315.7503Z" transform="translate(-15.7247 -85.3277)"/><path class="cls-9" d="M85.65979,238.6229S70.223,290.102,66.40009,308.4479s-4.1187,56.4846-4.1187,56.4846-6.7488,14.0096-6.90839,20.2441c-.17021,6.6465,3.31939,11.9346,2.92129,16.2844-.39829,4.3498,4.8971,1.9883,3.4013-6.8217s2.7481-16.789,4.5799-16.533-1.5157,9.619.1106,12.9929c1.6261,3.3741,3.7318-3.18,5.8253-7.1574,2.1735-4.1295,2.0462-13.1399,1.0572-19.5715s10.6703-45.4995,10.72641-56.8197l14.76359-49.8893S93.88129,236.8352,85.65979,238.6229Z" transform="translate(-15.7247 -85.3277)"/><path class="cls-4" d="M100.65019,256.4078c-.5227,3.3078-2.3529,8.9874-4.71719,16.1334v.0038c-.20081.6024-.40551,1.2163-.61,1.8414a.56114.56114,0,0,0-.03021.0872c-.5911,1.777-1.2087,3.6372-1.8454,5.5621l-.0113.0342c-2.6182,7.9492-5.5168,17.0427-7.9493,26.3862-.8372,3.1978-1.61779,6.4298-2.3112,9.6504-.88659,4.111-1.6368,8.2107-2.1862,12.2231-1.974,14.4548-5.7478,32.7631-5.7478,32.7631-5.5357,2.2734-14.18959-.7274-14.18959-.7274s-.22361-26.3673,1.01159-36.6127A274.53078,274.53078,0,0,1,67.944,291.717c6.63069-28.4891,18.30069-56.3644,21.50239-63.7566.2538-.5911.45461-1.0496.5948-1.3678h2.7545C98.21769,230.0367,102.06359,247.4963,100.65019,256.4078Z" transform="translate(-15.7247 -85.3277)"/><path class="cls-3" d="M60.60189,355.0855l.4343,6.0673s8.2283,2.6741,14.39581.791l1.63079-5.4117C71.124,356.8463,65.63709,356.7002,60.60189,355.0855Z" transform="translate(-15.7247 -85.3277)"/><path class="cls-11" d="M95.933,272.5412v.0038a.794.794,0,0,1-.04541.2614c-.1857.5115-.3752,1.0382-.56459,1.58a.56114.56114,0,0,0-.03021.0872c-.6064,1.7202-1.224,3.5918-1.8454,5.5621l-.0113.0342a299.1076,299.1076,0,0,0-8.0098,31.3686q.02265-2.48355.0605-4.9824c-.8372,3.1978-1.61779,6.4298-2.3112,9.6504a116.28613,116.28613,0,0,1,2.3529-12.6702,296.778,296.778,0,0,1,8.9343-31.149.75823.75823,0,0,1,1.47021.2539Z" transform="translate(-15.7247 -85.3277)"/><path class="cls-5" d="M372.07159,408.6806h36.4647c-.1206-2.5294-.2406-4.9539-.3572-7.2434-.6358-12.4857-1.1757-20.9881-1.1757-20.9881l-29.6553,1.3174-2.4589.1112-4.36219.1953s.42119,7.6024,1.076,18.74C371.74829,403.2765,371.90519,405.9147,372.07159,408.6806Z" transform="translate(-15.7247 -85.3277)"/><path class="cls-6" d="M374.88919,381.8777l-4.36219.1953s.42119,7.6024,1.076,18.74a264.88808,264.88808,0,0,0,36.57609.6242c-.6359-12.4857-1.1757-20.9881-1.1757-20.9881l-29.6553,1.3174Z" transform="translate(-15.7247 -85.3277)"/><path class="cls-6" d="M378.85959,408.6806c-.6667-11.5575-1.213-21.4308-1.5131-26.9127l-2.4591.1107c.2989,5.4571.8431,15.2847,1.5081,26.802Z" transform="translate(-15.7247 -85.3277)"/><path class="cls-5" d="M361.37369,408.6806c.1879-3.131.3639-6.1004.5245-8.8367.62781-10.609,1.0223-17.7709,1.0223-17.7709l-4.7336-.2108-2.455-.1111-29.2914-1.302s-.3219,5.067-.7622,13.1213c-.233,4.2922-.4999,9.436-.7701,15.1102Z" transform="translate(-15.7247 -85.3277)"/><path class="cls-6" d="M325.67829,393.5704a322.349,322.349,0,0,0,36.2199,6.2735c.62781-10.609,1.0223-17.7709,1.0223-17.7709l-4.7336-.2107-2.455-.1112-29.2914-1.302S326.11859,385.5161,325.67829,393.5704Z" transform="translate(-15.7247 -85.3277)"/><path class="cls-6" d="M356.67869,408.6806c.665-11.5287,1.209-21.3646,1.5068-26.8184l-2.455-.1107c-.3002,5.4786-.847,15.3601-1.51449,26.9291Z" transform="translate(-15.7247 -85.3277)"/><path class="cls-4" d="M412.29759,386.1332a175.02918,175.02918,0,0,1-22.2827,4.6224q-3.8751.5445-7.7452.9023-5.2209.4839-10.4394.6478a165.177,165.177,0,0,1-17.2646-.3756,174.94332,174.94332,0,0,1-33.3826-5.7969c-.1033-10.3764.05291-47.5874.8317-83.4777q.05685-2.4159.1135-4.824c.005-.3403.0151-.6805.0226-1.0208.0076-.3705.0177-.741.0278-1.109.0251-1.1392.0554-2.2734.0831-3.4025q.087-3.45915.184-6.8554.0606-2.03025.121-4.0326c.0075-.2773.0176-.552.02521-.8267q.04154-1.31955.08319-2.6238v-.0025c.0101-.2697.0176-.5394.0277-.809.0252-.8015.0529-1.5979.07811-2.3869.02529-.6729.04789-1.3357.07059-2.0011.862-24.2109,2.1222-43.3078,3.9268-45.9996,3.0597-4.5644,13.4815-10.6234,21.8643-15.5558,2.9867-1.7542,6.5531-3.579,8.5945-4.9324,2.9766,2.3968,5.1366,4.5619,9.54981,4.4132,4.93739-.1689,6.15479-3.1379,8.03749-5.6835,1.1493.746,4.0679,3.1404,5.5852,4.0301,1.298.7662,2.7044,1.5777,4.1712,2.4221,2.2684,1.298,4.6804,2.6766,7.0697,4.083,3.5412,2.0844,7.0319,4.2342,9.9278,6.2884a26.1791,26.1791,0,0,1,6.3237,5.7187c1.6382,2.4599,2.6993,18.3863,3.3823,39.3458.0278.7334.0479,1.477.07561,2.2255.00249.0907.00249.1815.00249.2747.0278.7612.05051,1.5425.0681,2.3238q.10215,3.53865.1966,7.2184c.0126.5167.0252,1.0384.03281,1.5576.01.3906.02259.7838.02519,1.1695.0227,1.0081.0453,2.0188.068,3.0395.0051.2042.0076.4083.0126.6125.0555,2.6892.1084,5.4163.1563,8.166q.02265,1.20615.0403,2.4171C412.585,333.6285,412.44129,374.9831,412.29759,386.1332Z" transform="translate(-15.7247 -85.3277)"/><path class="cls-11" d="M411.96239,295.8958l-11.7626,11.9315-10.9587-11.1098L378.285,307.8273l-10.999-11.1552-11.004,11.1552L345.21,296.599l-11.07461,11.2283-11.9567-12.1256c.0251-1.1392.0554-2.2734.0831-3.4025q.087-3.45915.184-6.8554l11.6896-11.8559L345.21,284.8187l11.072-11.2308,11.004,11.1552,10.999-11.1552,10.95609,11.1098,10.9587-11.1098,11.566,11.7248c.0555,2.6892.1084,5.4163.1563,8.166Q411.94474,294.68485,411.96239,295.8958Z" transform="translate(-15.7247 -85.3277)"/><path class="cls-11" d="M391.659,357.3922h-.00331c-15.74969-.0692-29.1931-7.236-37.697-13.2362a86.29368,86.29368,0,0,1-14.8263-13.13.75785.75785,0,0,1,1.1599-.9757A84.74713,84.74713,0,0,0,354.867,342.9419c8.319,5.8637,21.45559,12.8674,36.79529,12.9346a.75785.75785,0,0,1-.00329,1.5157Z" transform="translate(-15.7247 -85.3277)"/><path class="cls-11" d="M381.83509,348.0772c-13.4102-2.636-25.2805-12.9065-25.8193-13.3779a.75788.75788,0,0,1,.9977-1.1411c.1394.1217,14.1082,12.201,28.3434,13.5a.75778.75778,0,1,1-.1375,1.5093A33.19454,33.19454,0,0,1,381.83509,348.0772Z" transform="translate(-15.7247 -85.3277)"/><path class="cls-11" d="M354.97819,231.528a.75793.75793,0,0,1-.1406-1.5025c19.2019-3.6436,24.9893-15.9965,25.0456-16.1209a.75773.75773,0,1,1,1.3809.6243c-.2427.5371-6.1755,13.1966-26.1438,16.9855A.76872.76872,0,0,1,354.97819,231.528Z" transform="translate(-15.7247 -85.3277)"/><path class="cls-11" d="M331.54949,264.7791v.0051a.7564.7564,0,0,1-.1034.2419c-.2873.4612-.5872.9376-.88709,1.424a.8171.8171,0,0,0-.04541.0807c-.9603,1.5525-1.9609,3.2488-2.9917,5.0408a.05363.05363,0,0,1-.0177.0302c-1.6105,2.8203-3.279,5.8775-4.91219,8.9827q.04154-1.31955.08319-2.6238v-.0025c.0101-.2697.0176-.5394.0277-.809,2.6338-4.8896,5.26011-9.4641,7.4629-12.9321a.7588.7588,0,0,1,1.3837.562Z" transform="translate(-15.7247 -85.3277)"/><path class="cls-9" d="M428.30809,236.6927s24.55469-7.8918,31.82129-24.0047c2.1019-4.6668-15.21238-52.0458-15.21238-52.0458l-8.35681.4044s2.3816,16.4385,3.8253,25.7468c1.1872,7.6533,3.1051,16.7975,3.75179,19.8094.141.6532.21972,1.0163.21972,1.0163-.40982.0705-.82081.1496-1.23941.233-11.4723,2.3304-26.11959,9.8033-26.11959,9.8033Z" transform="translate(-15.7247 -85.3277)"/><path class="cls-7" d="M450.52538,212.1598a.78739.78739,0,0,0,1.0983-.173.7729.7729,0,0,0-.1729-1.0983,61.80891,61.80891,0,0,0-7.3135-4.2857c.141.6532.21972,1.0163.21972,1.0163-.40982.0705-.82081.1496-1.23941.233A62.02107,62.02107,0,0,1,450.52538,212.1598Z" transform="translate(-15.7247 -85.3277)"/><path class="cls-4" d="M390.73689,215.0172s-7.427,17.4302,11.4815,27.1337c13.0863,6.7156,42.89629-10.818,42.89629-10.818l-10.62809-22.5646S407.21179,220.0187,390.73689,215.0172Z" transform="translate(-15.7247 -85.3277)"/><path class="cls-9" d="M440.63929,134.0042c-.7396.5186-.5885,3.72-.2629,6.7351-.1042.0152-.2108.0331-.3181.0516-.8789-4.0236-2.6285-10.8679-4.1254-9.5617-.9798.8552.3323,6.7568,1.2263,10.2865q-.2775.0855-.5548.1754c-1.12739-4.1904-3.5567-12.2613-5.1737-10.6917-1.0789,1.0472.9921,8.1537,2.1421,11.7794q-.24119.0939-.47079.1854c-1.09981-3.5167-3.45-10.1702-5.05991-8.6074-1.4578,1.415,2.7192,11.4734,2.7192,11.4734h0l1.0953,3.9482s-1.3014.5617-3.3328-1.7359c-2.0317-2.2976-4.4605-2.7023-2.7734.622,1.9068,3.7568,4.7287,6.4508,5.9711,9.1089,1.2426,2.6582,5.15051,3.5373,5.15051,3.5373l7.847-.3792s1.52248-13.2634-1.40541-19.5852l-.0001-.0003C442.81069,137.588,441.92719,133.101,440.63929,134.0042Z" transform="translate(-15.7247 -85.3277)"/><path class="cls-5" d="M343.54949,164.5914c0,13.3663,8.2284,22.5758,21.589,22.5758,13.3662,0,22.68351-9.9014,22.68351-23.2676a28.65135,28.65135,0,0,0-1.758-10.1736c-.068-.1814-.13611-.3629-.20981-.5387-.1418-.3459-.28919-.6918-.448-1.0264-.2325-.5161-.4934-1.0208-.7656-1.5085-3.4819-6.2606-9.7198-10.2416-18.1014-10.2416C350.51329,140.4108,343.54949,151.2252,343.54949,164.5914Z" transform="translate(-15.7247 -85.3277)"/><path class="cls-7" d="M346.55009,170.346s-3.71309-4.9509-6.4744-.857c-2.761,4.0942,1.1426,16.1858,7.9025,13.2343Z" transform="translate(-15.7247 -85.3277)"/><path class="cls-8" d="M346.50219,178.9866a.57191.57191,0,0,1-.5498-.4174c-1.0476-3.733-4.9151-5.2464-4.9541-5.2612a.57134.57134,0,0,1,.40471-1.0686c.18069.0683,4.44269,1.7224,5.64949,6.0213a.57221.57221,0,0,1-.5503.7259Z" transform="translate(-15.7247 -85.3277)"/><path class="cls-8" d="M342.59809,177.1059a.57121.57121,0,0,1-.4797-.8806,5.21386,5.21386,0,0,1,2.1442-1.7282.571.571,0,1,1,.46641,1.0425,4.13149,4.13149,0,0,0-1.65,1.3045A.571.571,0,0,1,342.59809,177.1059Z" transform="translate(-15.7247 -85.3277)"/><path class="cls-7" d="M384.81689,170.346s3.7133-4.9509,6.4743-.857c2.7613,4.0942-1.1426,16.1858-7.9025,13.2343Z" transform="translate(-15.7247 -85.3277)"/><path class="cls-8" d="M384.865,178.9866a.57167.57167,0,0,0,.54959-.4174c1.0477-3.733,4.915-5.2464,4.9543-5.2612a.57137.57137,0,0,0-.40489-1.0686c-.18061.0683-4.44281,1.7224-5.64961,6.0213a.57229.57229,0,0,0,.55061.7259Z" transform="translate(-15.7247 -85.3277)"/><path class="cls-8" d="M388.76879,177.1059a.57121.57121,0,0,0,.4797-.8806,5.21146,5.21146,0,0,0-2.144-1.7282.571.571,0,1,0-.4664,1.0425,4.13091,4.13091,0,0,1,1.6498,1.3045A.5712.5712,0,0,0,388.76879,177.1059Z" transform="translate(-15.7247 -85.3277)"/><path class="cls-9" d="M374.82389,192.9794v12.0249s-3.5861,6.1239-8.4358,6.541c-4.8447.4226-9.15-5.2727-9.15-5.2727V193.8248Z" transform="translate(-15.7247 -85.3277)"/><path class="cls-7" d="M374.82389,192.9794v5.3356c-3.2542,3.611-9.0335,4.5129-17.5858,3.2503v-7.7405Z" transform="translate(-15.7247 -85.3277)"/><path class="cls-9" d="M387.50189,162.0969a116.99092,116.99092,0,0,1-1.5597,15.1898c-.2225,1.1655-.4741,2.2622-.754,3.2449-2.5306,8.8601-8.86019,24.0558-26.5807,17.7262-7.8263-2.7935-11.4538-11.511-13.07049-20.377a85.72338,85.72338,0,0,1-1.18251-16.4524,12.55455,12.55455,0,0,1,6.3696-10.6825c10.4598-5.9297,21.4966-3.7187,28.7631-.9253A12.51356,12.51356,0,0,1,387.50189,162.0969Z" transform="translate(-15.7247 -85.3277)"/><path class="cls-5" d="M358.08529,171.9155c0,1.2836-.6617,2.3241-1.4776,2.3241-.8162,0-1.4778-1.0405-1.4778-2.3241s.6616-2.3242,1.4778-2.3242C357.42359,169.5913,358.08529,170.6318,358.08529,171.9155Z" transform="translate(-15.7247 -85.3277)"/><path class="cls-5" d="M375.50169,171.8676c0,1.2837-.6615,2.3242-1.4776,2.3242s-1.4779-1.0405-1.4779-2.3242.6617-2.3244,1.4779-2.3244S375.50169,170.584,375.50169,171.8676Z" transform="translate(-15.7247 -85.3277)"/><path class="cls-5" d="M378.84089,163.8803s-4.6621-1.8426-8.252-.2917l.35911,1.9964s5.26869-.4455,7.92349.6301A3.46478,3.46478,0,0,0,378.84089,163.8803Z" transform="translate(-15.7247 -85.3277)"/><path class="cls-5" d="M351.67719,163.8803s4.6621-1.8426,8.25181-.2917l-.35911,1.9964s-5.2684-.4455-7.9233.6301A3.46249,3.46249,0,0,1,351.67719,163.8803Z" transform="translate(-15.7247 -85.3277)"/><path class="cls-7" d="M365.88209,181.656a6.09217,6.09217,0,0,0,2.0678-.4355.57129.57129,0,0,0-.43189-1.0578,3.42993,3.42993,0,0,1-2.29151.2167.62094.62094,0,0,1-.2808-.5322,86.4403,86.4403,0,0,1,.3452-8.7488.57117.57117,0,1,0-1.1385-.0937,84.61894,84.61894,0,0,0-.3432,8.9602,1.74494,1.74494,0,0,0,.8307,1.3948A2.41082,2.41082,0,0,0,365.88209,181.656Z" transform="translate(-15.7247 -85.3277)"/><path class="cls-10" d="M358.21119,184.5569c.9496,3.2957,3.6492,6.5844,7.3677,6.6295,3.715-.0451,6.4146-3.3338,7.36411-6.6295Z" transform="translate(-15.7247 -85.3277)"/><path class="cls-7" d="M365.26069,194.7673a5.9686,5.9686,0,0,0,2.7849-.7808.57122.57122,0,1,0-.5918-.9772,4.86094,4.86094,0,0,1-2.1931.6154,4.63456,4.63456,0,0,1-2.0789-.6127.5711.5711,0,0,0-.6002.9718A5.71017,5.71017,0,0,0,365.26069,194.7673Z" transform="translate(-15.7247 -85.3277)"/><path class="cls-5" d="M386.89759,170.4472h-2.5888c.286-2.5991.6964-7.1773-1.4384-7.8331-6.7461-2.0719,1.9959-6.8391-1.0491-9.2156-3.0448-2.382-10.624-1.3615-15.8945-1.5318-5.30279-.1717-13.8261-.0969-15.8939.3829-2.0737.4741-.9368,3.9172-.1772,6.585.7656,2.6619-2.5421,5.6103-3.0963,8.3695a12.16361,12.16361,0,0,0,.0012,3.2431h-2.1581c-.2561-3.3581-.29449-6.4843-.248-9.0188a12.55455,12.55455,0,0,1,6.3696-10.6825c10.4598-5.9297,21.4966-3.719,28.7631-.9253a12.51356,12.51356,0,0,1,8.0147,12.2763C387.37989,164.6572,387.19029,167.5689,386.89759,170.4472Z" transform="translate(-15.7247 -85.3277)"/><path class="cls-10" d="M356.34729,178.6454a6.4672,6.4672,0,1,1,6.4671-6.4673A6.47456,6.47456,0,0,1,356.34729,178.6454Zm0-11.9262a5.459,5.459,0,1,0,5.459,5.4589A5.46508,5.46508,0,0,0,356.34729,166.7192Z" transform="translate(-15.7247 -85.3277)"/><path class="cls-10" d="M374.024,178.6454a6.4672,6.4672,0,1,1,6.46709-6.4673A6.47456,6.47456,0,0,1,374.024,178.6454Zm0-11.9262a5.459,5.459,0,1,0,5.459,5.4589A5.465,5.465,0,0,0,374.024,166.7192Z" transform="translate(-15.7247 -85.3277)"/><path class="cls-10" d="M350.97309,170.0954a.50285.50285,0,0,1-.355-.1462h0a7.94544,7.94544,0,0,0-6.821-1.98.50407.50407,0,0,1-.2289-.9818,8.82681,8.82681,0,0,1,7.7605,2.2465.5042.5042,0,0,1-.3556.8615Z" transform="translate(-15.7247 -85.3277)"/><path class="cls-10" d="M379.51739,170.0954a.50409.50409,0,0,1-.2761-.9261c.19271-.126,4.7685-3.0781,8.6626-2.4367a.50416.50416,0,0,1-.164.9949c-3.5046-.5773-7.9032,2.2572-7.9475,2.2859A.50221.50221,0,0,1,379.51739,170.0954Z" transform="translate(-15.7247 -85.3277)"/><path class="cls-10" d="M367.91229,170.7257a4.07723,4.07723,0,0,0-2.7837-1.6355,3.71445,3.71445,0,0,0-2.6523,1.6332l-.844-.5512a4.66826,4.66826,0,0,1,3.4963-2.0902,5.02848,5.02848,0,0,1,3.60141,2.0537Z" transform="translate(-15.7247 -85.3277)"/><path class="cls-9" d="M329.41969,263.8289a183.52838,183.52838,0,0,1-14.835,23.6413,61.65445,61.65445,0,0,1-7.2713,8.1207c-3.94439,3.5612-7.7905,5.4238-10.9233,3.8435-11.619-5.8573-37.521-52.4719-37.521-52.4719l6.3791-7.5662s11.5282,13.3127,19.9589,21.2796c7.7754,7.3469,13.7537,12.8389,13.7537,12.8389,1.0763-1.6383,2.223-3.4328,3.41521-5.3332,1.26769-2.0163,2.58339-4.151,3.92169-6.3463,9.7085-15.9389,20.4807-35.0737,20.4807-35.0737Z" transform="translate(-15.7247 -85.3277)"/><path class="cls-7" d="M314.58469,287.4702a61.65445,61.65445,0,0,1-7.2713,8.1207L302.376,268.1816c1.26769-2.0163,2.58339-4.151,3.92169-6.3463Z" transform="translate(-15.7247 -85.3277)"/><path class="cls-4" d="M326.77839,226.7616l-23.2843,36.6204,7.8148,32.2089,19.2677-31.3738S332.913,242.7535,326.77839,226.7616Z" transform="translate(-15.7247 -85.3277)"/><path class="cls-4" d="M297.501,408.6806c-1.66251-9.2161-3.30151-19.6097-4.79171-29.7033q-.49035-3.34815-.9619-6.6285c-1.195-8.3572-2.2622-16.2595-3.1189-22.8166-.3269-2.4913-.62-4.7911-.8867-6.8429-.8306-6.5458-1.3191-10.6116-1.3191-10.6116l-36.7688,1.3903-36.8816-1.3903s-.9507,8.0453-2.4726,19.7091c-.278,2.1231-.5749,4.3625-.8868,6.6999-.8192,6.1213-1.75489,12.8812-2.76189,19.803q-.0225.1521-.04521.3044c-.3156,2.1568-.6349,4.3288-.9657,6.5007a.66779.66779,0,0,1-.015.0864v.0039c-.789,5.2493-1.6158,10.4914-2.4574,15.5342-.3458,2.0816-.6953,4.126-1.0485,6.1174q-.1641.9309-.3285,1.8439Z" transform="translate(-15.7247 -85.3277)"/><path class="cls-11" d="M221.24749,343.1211a3.46545,3.46545,0,1,1-3.4653-3.4653A3.46541,3.46541,0,0,1,221.24749,343.1211Z" transform="translate(-15.7247 -85.3277)"/><path class="cls-11" d="M229.84709,356.5468a3.46545,3.46545,0,1,1-3.4653-3.4654A3.46551,3.46551,0,0,1,229.84709,356.5468Z" transform="translate(-15.7247 -85.3277)"/><path class="cls-11" d="M246.76649,349.6159a3.46545,3.46545,0,1,1-3.46549-3.4654A3.46555,3.46555,0,0,1,246.76649,349.6159Z" transform="translate(-15.7247 -85.3277)"/><path class="cls-11" d="M220.06259,370.805a3.46545,3.46545,0,1,1-3.4655-3.4655A3.46555,3.46555,0,0,1,220.06259,370.805Z" transform="translate(-15.7247 -85.3277)"/><path class="cls-11" d="M241.20479,369.323a3.46545,3.46545,0,1,1-3.4654-3.4655A3.46532,3.46532,0,0,1,241.20479,369.323Z" transform="translate(-15.7247 -85.3277)"/><path class="cls-11" d="M212.55429,355.0371a3.46107,3.46107,0,0,1-3.1414,3.4496c.3119-2.3373.6088-4.5768.8868-6.6999A3.46414,3.46414,0,0,1,212.55429,355.0371Z" transform="translate(-15.7247 -85.3277)"/><path class="cls-11" d="M275.65769,389.683a3.46545,3.46545,0,1,1-3.4654-3.4655A3.46532,3.46532,0,0,1,275.65769,389.683Z" transform="translate(-15.7247 -85.3277)"/><path class="cls-11" d="M274.02059,370.805a3.46545,3.46545,0,1,1-3.4654-3.4655A3.46547,3.46547,0,0,1,274.02059,370.805Z" transform="translate(-15.7247 -85.3277)"/><path class="cls-11" d="M292.70939,378.9773a3.46612,3.46612,0,1,1-1.36039-6.6548,2.79783,2.79783,0,0,1,.39839.0263Q292.22081,375.6236,292.70939,378.9773Z" transform="translate(-15.7247 -85.3277)"/><path class="cls-11" d="M277.48609,403.5179a3.46545,3.46545,0,1,1-3.4655-3.4656A3.46538,3.46538,0,0,1,277.48609,403.5179Z" transform="translate(-15.7247 -85.3277)"/><path class="cls-11" d="M292.30929,397.9857a3.46545,3.46545,0,1,1-3.4656-3.4655A3.46549,3.46549,0,0,1,292.30929,397.9857Z" transform="translate(-15.7247 -85.3277)"/><path class="cls-11" d="M261.46469,408.6806a3.45542,3.45542,0,0,0-5.7119,0Z" transform="translate(-15.7247 -85.3277)"/><path class="cls-11" d="M217.78219,392.6968a3.46545,3.46545,0,1,1-3.4656-3.4656A3.46541,3.46541,0,0,1,217.78219,392.6968Z" transform="translate(-15.7247 -85.3277)"/><path class="cls-11" d="M208.63869,381.7505a3.458,3.458,0,0,1-3.0136,3.4307.66632.66632,0,0,0,.015-.0863c.3308-2.172.6501-4.344.9657-6.5008A3.47221,3.47221,0,0,1,208.63869,381.7505Z" transform="translate(-15.7247 -85.3277)"/><path class="cls-11" d="M204.58789,403.5149a3.47345,3.47345,0,0,1-2.4687,3.3218c.3532-1.9914.7027-4.0358,1.0485-6.1174A3.463,3.463,0,0,1,204.58789,403.5149Z" transform="translate(-15.7247 -85.3277)"/><path class="cls-11" d="M226.38179,404.9816a3.46555,3.46555,0,1,1-3.4656-3.4654A3.46558,3.46558,0,0,1,226.38179,404.9816Z" transform="translate(-15.7247 -85.3277)"/><path class="cls-11" d="M244.67029,402.2676a3.46545,3.46545,0,1,1-3.4655-3.4653A3.46558,3.46558,0,0,1,244.67029,402.2676Z" transform="translate(-15.7247 -85.3277)"/><path class="cls-11" d="M231.62279,385.2295a3.46545,3.46545,0,1,1-3.4656-3.4654A3.46558,3.46558,0,0,1,231.62279,385.2295Z" transform="translate(-15.7247 -85.3277)"/><path class="cls-11" d="M250.23189,381.7641a3.46545,3.46545,0,1,1-3.4654-3.4655A3.46538,3.46538,0,0,1,250.23189,381.7641Z" transform="translate(-15.7247 -85.3277)"/><path class="cls-11" d="M258.60869,363.4779a3.46545,3.46545,0,1,1-3.4653-3.4656A3.46534,3.46534,0,0,1,258.60869,363.4779Z" transform="translate(-15.7247 -85.3277)"/><path class="cls-11" d="M288.62849,349.5322a3.25261,3.25261,0,0,1-.744.0826,3.46421,3.46421,0,0,1-.1428-6.9255C288.00849,344.7411,288.30159,347.0409,288.62849,349.5322Z" transform="translate(-15.7247 -85.3277)"/><path class="cls-11" d="M270.55519,349.6159a3.46545,3.46545,0,1,1-3.4655-3.4654A3.46555,3.46555,0,0,1,270.55519,349.6159Z" transform="translate(-15.7247 -85.3277)"/><path class="cls-11" d="M283.24769,361.9663a3.46545,3.46545,0,1,1-3.4654-3.4655A3.46545,3.46545,0,0,1,283.24769,361.9663Z" transform="translate(-15.7247 -85.3277)"/><path class="cls-11" d="M262.07419,392.6968a3.4654,3.4654,0,1,1-3.4655-3.4656A3.46532,3.46532,0,0,1,262.07419,392.6968Z" transform="translate(-15.7247 -85.3277)"/><path class="cls-3" d="M288.65919,332.9871c-19.39719,12.6634-55.0125,11.6714-77.39319,0,2.13809-13.3172,4.95259-26.6495,4.34759-44.3744q-.10138-2.914-.248-5.7868-.1296-2.49705-.2893-4.9526c-1.9315-29.4866-6.963-53.5958-4.4905-56.7109a23.50524,23.50524,0,0,1,5.09921-4.3438q1.30784-.8907,2.78829-1.7962c2.3222-1.4167,4.90371-2.8447,7.4965-4.235,6.1513-3.2842,12.3965-6.3317,15.5266-8.4135a19.89586,19.89586,0,0,0,8.2407,2.0781c.0713,0,.1502,0,.2291-.0076a2.164,2.164,0,0,0,.22181.0076,19.92447,19.92447,0,0,0,8.24429-2.0781c2.90471,1.9315,8.3721,4.6258,13.9524,7.5643a120.7921,120.7921,0,0,1,11.4984,6.6774,23.08364,23.08364,0,0,1,4.9113,4.2199c1.225,1.5443.7101,8.3157-.3382,18.3487-1.037,9.8713-2.5891,22.9068-3.5285,37.2348-.2593,3.9795-.4734,8.0564-.6162,12.1937C283.71029,306.3376,286.52089,319.6699,288.65919,332.9871Z" transform="translate(-15.7247 -85.3277)"/><path class="cls-4" d="M276.79689,318.26h-.0033c-15.6197-.0687-28.9521-7.1763-37.3859-13.127a85.57723,85.57723,0,0,1-14.7039-13.0217.75157.75157,0,0,1,1.1503-.9676,84.04417,84.04417,0,0,0,14.4545,12.7852c8.2502,5.8153,21.2785,12.7612,36.4915,12.8279a.7516.7516,0,0,1-.0032,1.5032Z" transform="translate(-15.7247 -85.3277)"/><path class="cls-4" d="M266.45559,309.167c-13.2995-2.6144-25.0718-12.8001-25.6062-13.2676a.75164.75164,0,0,1,.9895-1.1317c.1382.1207,13.9917,12.1003,28.1095,13.3887a.75145.75145,0,1,1-.13639,1.4967A32.92614,32.92614,0,0,1,266.45559,309.167Z" transform="translate(-15.7247 -85.3277)"/><path class="cls-4" d="M246.76579,240.3599a.75166.75166,0,0,1-.1395-1.4901c19.0434-3.6136,24.7831-15.8645,24.8389-15.9878a.75147.75147,0,1,1,1.3695.6191c-.24069.5327-6.1245,13.0877-25.928,16.8453A.75657.75657,0,0,1,246.76579,240.3599Z" transform="translate(-15.7247 -85.3277)"/><path class="cls-9" d="M272.38329,209.9385c-3.7801,8.6216-13.07229,17.5496-25.1562,15.4625-11.7019-2.0227-17.25209-8.2121-21.2573-14.614,6.1525-3.2853,12.3976-6.3294,15.52621-8.4124a19.9762,19.9762,0,0,0,8.23939,2.079,2.20732,2.20732,0,0,0,.2293-.0081,2.09168,2.09168,0,0,0,.2251.0081,20.00792,20.00792,0,0,0,8.2436-2.079C261.33669,204.3047,266.80579,206.999,272.38329,209.9385Z" transform="translate(-15.7247 -85.3277)"/><path class="cls-10" d="M262.28119,203.0059a.59393.59393,0,0,0-.6015.5936c-.0036.4847-.2016,11.8813-10.432,12.7643-9.4891.8247-13.4169-8.259-14.6304-12.0273a.53188.53188,0,0,0-.508-.3694h-.1122a.53383.53383,0,0,0-.508.7019c1.2947,3.8876,5.4312,13.2766,15.0981,12.9325q.3759-.0135.7632-.0467c11.3223-.9772,11.5239-13.8185,11.52461-13.9482A.59746.59746,0,0,0,262.28119,203.0059Z" transform="translate(-15.7247 -85.3277)"/><path class="cls-5" d="M269.51309,142.4304s9.1431,14.1618,8.141,28.913,1.3477,31.7795-11.8518,31.0312c-13.19929-.7484-36.7431,5.2919-44.2265-6.197C214.09259,184.6886,269.51309,142.4304,269.51309,142.4304Z" transform="translate(-15.7247 -85.3277)"/><path class="cls-6" d="M272.90149,168.4699s2.3729,21.3822-7.773,27.2693-17.4888-.6856-17.4888-.6856S269.02589,165.2499,272.90149,168.4699Z" transform="translate(-15.7247 -85.3277)"/><path class="cls-7" d="M230.75669,168.3706s-3.6431-4.8574-6.3521-.8407,1.121,15.8803,7.7533,12.9845Z" transform="translate(-15.7247 -85.3277)"/><path class="cls-8" d="M230.70979,176.8482a.56119.56119,0,0,1-.5395-.4094c-1.0279-3.6626-4.82229-5.1475-4.8607-5.1621a.56051.56051,0,0,1,.3972-1.0483,9.65384,9.65384,0,0,1,5.543,5.9076.5614.5614,0,0,1-.54.7122Z" transform="translate(-15.7247 -85.3277)"/><path class="cls-8" d="M226.87949,175.0031a.5606.5606,0,0,1-.4708-.8639,5.11531,5.11531,0,0,1,2.1038-1.6958.56039.56039,0,0,1,.4576,1.0231,4.05567,4.05567,0,0,0-1.6189,1.2796A.55976.55976,0,0,1,226.87949,175.0031Z" transform="translate(-15.7247 -85.3277)"/><path class="cls-7" d="M268.30169,168.3706s3.6431-4.8574,6.3521-.8407-1.121,15.8803-7.7533,12.9845Z" transform="translate(-15.7247 -85.3277)"/><path class="cls-8" d="M268.34849,176.8482a.56094.56094,0,0,0,.53951-.4094c1.02789-3.6626,4.82239-5.1475,4.86069-5.1621a.5605.5605,0,0,0-.3971-1.0483,9.65384,9.65384,0,0,0-5.543,5.9076.5614.5614,0,0,0,.5399.7122Z" transform="translate(-15.7247 -85.3277)"/><path class="cls-8" d="M272.17889,175.0031a.5606.5606,0,0,0,.4708-.8639,5.11522,5.11522,0,0,0-2.1038-1.6958.56039.56039,0,0,0-.4576,1.0231,4.05567,4.05567,0,0,1,1.6189,1.2796A.55977.55977,0,0,0,272.17889,175.0031Z" transform="translate(-15.7247 -85.3277)"/><path class="cls-9" d="M258.49719,190.5769V202.375s-3.5185,6.0085-8.2766,6.4176c-4.7534.4148-8.9774-5.1732-8.9774-5.1732V191.4065Z" transform="translate(-15.7247 -85.3277)"/><path class="cls-7" d="M258.49719,190.5769v5.235c-3.1928,3.543-8.8614,4.7983-17.2525,3.5597l-.0015-7.9651Z" transform="translate(-15.7247 -85.3277)"/><path class="cls-9" d="M270.93589,160.2772a114.80353,114.80353,0,0,1-1.5302,14.9033c-.2185,1.1433-.4651,2.2195-.7398,3.1835-2.483,8.6931-8.6931,23.602-26.0792,17.3917-7.6786-2.7407-11.2376-11.2936-12.8239-19.9924a84.0973,84.0973,0,0,1-1.1601-16.1418,12.31676,12.31676,0,0,1,6.2494-10.481c10.2624-5.8178,21.09091-3.6487,28.2202-.908A12.27743,12.27743,0,0,1,270.93589,160.2772Z" transform="translate(-15.7247 -85.3277)"/><path class="cls-5" d="M241.87269,169.0629c0,1.2594-.6492,2.2805-1.4498,2.2805-.8008,0-1.4498-1.0211-1.4498-2.2805s.649-2.2802,1.4498-2.2802C241.22349,166.7827,241.87269,167.8036,241.87269,169.0629Z" transform="translate(-15.7247 -85.3277)"/><path class="cls-5" d="M259.77539,169.0629c0,1.2594-.6492,2.2805-1.4498,2.2805s-1.4498-1.0211-1.4498-2.2805.64921-2.2802,1.4498-2.2802S259.77539,167.8036,259.77539,169.0629Z" transform="translate(-15.7247 -85.3277)"/><path class="cls-5" d="M237.55119,162.2741a24.203,24.203,0,0,1,6.2017-.9291,1.07694,1.07694,0,0,1,1.0728,1.2628l-.003.0167a1.07325,1.07325,0,0,1-1.1085.8809c-1.7456-.0814-6.3281.1642-8.4919,1.0409a1.62286,1.62286,0,0,1,.4933-1.1535A3.73647,3.73647,0,0,1,237.55119,162.2741Z" transform="translate(-15.7247 -85.3277)"/><path class="cls-5" d="M260.97579,162.3208a24.19948,24.19948,0,0,0-6.20179-.929,1.07677,1.07677,0,0,0-1.07271,1.2626l.0031.0168a1.073,1.073,0,0,0,1.1083.8809c1.7456-.0813,6.3282.1642,8.492,1.0409a1.62279,1.62279,0,0,0-.4934-1.1535A3.73428,3.73428,0,0,0,260.97579,162.3208Z" transform="translate(-15.7247 -85.3277)"/><path class="cls-7" d="M249.724,179.4673a2.36371,2.36371,0,0,1-1.21871-.2907,1.71188,1.71188,0,0,1-.815-1.3685,83.0475,83.0475,0,0,1,.3366-8.7911.56049.56049,0,0,1,1.1172.0919,84.7813,84.7813,0,0,0-.3388,8.5838.60881.60881,0,0,0,.2755.5219,3.36616,3.36616,0,0,0,2.2483-.2123.56041.56041,0,0,1,.4236,1.0377A5.97211,5.97211,0,0,1,249.724,179.4673Z" transform="translate(-15.7247 -85.3277)"/><path class="cls-10" d="M242.60619,183.0064c.4236,2.132,1.8319,6.0542,6.5764,6.0542,4.756,0,6.0898-3.5844,6.548-6.0542Z" transform="translate(-15.7247 -85.3277)"/><path class="cls-7" d="M249.11459,192.3312a5.60243,5.60243,0,0,1-2.629-.7688.56049.56049,0,0,1,.5883-.9542h0a4.50968,4.50968,0,0,0,2.0407.6021,4.76958,4.76958,0,0,0,2.1526-.6046.56051.56051,0,0,1,.5797.9595A5.85664,5.85664,0,0,1,249.11459,192.3312Z" transform="translate(-15.7247 -85.3277)"/><path class="cls-5" d="M273.19259,159.3636a1.84874,1.84874,0,0,1-1.3491,1.0334,35.63989,35.63989,0,0,1-.2029,4.1484c-.6918,8.1008-2.7351,9.5232-3.1974,7.5203a93.54435,93.54435,0,0,1-.1395-11.447,26.45071,26.45071,0,0,1-2.9685-.3721l-1.8788-7.8648-.6576,7.7672c-2.8183.9807-9.3943-.59-9.3943-.59l-2.2057-7.7521-1.3641,7.459c-4.2273,2.0592-9.51069.6877-9.51069.6877l-1.21371-8.0452-2.8032,8.0452s-9.0184,3.2353-9.116,0c-.0602-1.8827,1.31891-7.1847,2.4837-11.2919a16.98752,16.98752,0,0,1,8.1918-10.3974c11.1865-6.0048,23.0157-2.8108,27.0741-.3871C273.54579,143.0139,273.19259,159.3636,273.19259,159.3636Z" transform="translate(-15.7247 -85.3277)"/><path class="cls-5" d="M232.15789,143.0289s-7.4244,8.8299-9.8668,24.6013c-2.4426,15.7712-5.8245,27.4234,3.6787,32.631,10.2855,5.6361,9.3951-5.9231,9.2469-9.065-.1482-3.1417-8.8973-11.7289-3.0588-35.9148C234.04309,147.4729,232.15789,143.0289,232.15789,143.0289Z" transform="translate(-15.7247 -85.3277)"/><path class="cls-6" d="M230.42269,175.6193v.0187c.0037.1165.01131.7442.05631,1.7249.02259.6088.06019,1.3489.11649,2.1907.34951,5.3134,1.3828,14.4896,4.419,17.6723,1.1987,1.2589,3.5096,1.8901,6.2302,2.1457v-4.1749a16.52464,16.52464,0,0,1-6.8351-6.3467,39.03609,39.03609,0,0,1-3.7802-11.6562Z" transform="translate(-15.7247 -85.3277)"/><path class="cls-10" d="M271.06989,180.7805a1.31335,1.31335,0,1,1-1.3133-1.3132A1.31338,1.31338,0,0,1,271.06989,180.7805Z" transform="translate(-15.7247 -85.3277)"/><path class="cls-3" d="M297.83019,279.702c-3.7193,10.6482-20.3766,9.8734-39.3485,4.0518-.0275-.0075-.0549-.0175-.0825-.025-.0599-.0175-.1174-.0375-.1774-.055l-2.6096-.8323c-.3599-.1175-.7224-.2375-1.0823-.36q-3.06705-1.0272-6.1715-2.2096a211.583,211.583,0,0,1-20.0517-8.881l.045-.1125,1.9397-5.0392.6624-1.7147s35.1717,3.8319,52.85621.135c.3-.0625.59239-.125.87989-.1925a11.00253,11.00253,0,0,0-.2025-1.1673c-9.3701-31.8998.8774-38.0162,4.3068-42.4654C288.79419,220.8343,304.85159,259.6003,297.83019,279.702Z" transform="translate(-15.7247 -85.3277)"/><path class="cls-4" d="M292.09869,269.8286a.76394.76394,0,0,1-.3275.075.7522.7522,0,0,1-.6749-.4199c-1.3397-2.7445-5.889-4.3768-7.28629-4.8242.3-.0625.59239-.125.87989-.1925-.07-.3924-.1375-.7824-.2025-1.1673,1.7772.5874,6.419,2.3771,7.9562,5.5266A.74925.74925,0,0,1,292.09869,269.8286Z" transform="translate(-15.7247 -85.3277)"/><path class="cls-4" d="M242.83689,268.4923c-7.1782,0-13.0067-.4125-13.51489-.4496a.74994.74994,0,0,1,.10909-1.4959c.2653.0191,26.648,1.8855,37.0501-2.3343a.75.75,0,1,1,.5639,1.3899C261.28729,267.938,251.15589,268.4923,242.83689,268.4923Z" transform="translate(-15.7247 -85.3277)"/><path class="cls-4" d="M255.61219,282.8415h.0025c6.019-1.6597,11.4906-3.277,14.6501-4.2893,4.3868-1.4073,8.01621-5.8415,9.6659-9.6109a.7505.7505,0,0,1,1.3748.6024c-1.7847,4.0768-5.7491,8.886-10.5833,10.4383-2.2929.7354-5.7948,1.785-9.8423,2.9402a9.11083,9.11083,0,0,1-5.2677-.0807Z" transform="translate(-15.7247 -85.3277)"/><path class="cls-3" d="M271.837,277.6848c-54.356,18.307-71.07821,6.3265-71.07821,6.3265-3.6594-33.092,9.8259-62.8496,9.8259-62.8496,3.98431,6.5689,8.4886,18.0345,8.4886,18.0345l1.1898,25.3658-.09.7049-.0425.3325-.225,1.7347-.005.0349c.115.025.2325.05.35.075,16.4422,3.4694,46.5122-.4074,46.5122-.4074Z" transform="translate(-15.7247 -85.3277)"/><path class="cls-4" d="M220.25059,267.444a53.55831,53.55831,0,0,0-8.2062,8.5511.75112.75112,0,0,1-1.1973-.9073l.0025-.0025a54.99178,54.99178,0,0,1,9.281-9.4859l-.225,1.7347-.005.0349C220.01559,267.394,220.13309,267.419,220.25059,267.444Z" transform="translate(-15.7247 -85.3277)"/><path class="cls-9" d="M266.76309,267.0371s6.01791-13.67,15.1666-12.4533l2.7595,9.8836c-5.00819,2.1266-5.741,10.7144-12.8513,13.2171Z" transform="translate(-15.7247 -85.3277)"/><path class="cls-9" d="M230.955,264.5246a21.78153,21.78153,0,0,0-13.80151-11.5095c-10.0018-2.5897-16.3738,2.1236-17.0453,3.9023-.6713,1.7789,3.7723.0787,3.7723.0787a8.63049,8.63049,0,0,0-4.5541,3.5386c-1.6602,2.7196,4.04061-.2148,4.04061-.2148s-4.08771,1.7916-4.60771,3.4526c-.5199,1.6607,4.8722-1.1454,5.8855-1.0917,0,0-4.81479,1.9136-4.7822,3.6275s5.5309-1.0812,9.6365-.8601a64.78889,64.78889,0,0,1,10.401,1.922,69.02129,69.02129,0,0,0,9.4764,1.2471Z" transform="translate(-15.7247 -85.3277)"/><path class="cls-4" d="M327.53509,125.8313a6.71385,6.71385,0,1,1,6.7137-6.7138A6.72145,6.72145,0,0,1,327.53509,125.8313Zm0-11.3214a4.60755,4.60755,0,1,0,4.6075,4.6076A4.61272,4.61272,0,0,0,327.53509,114.5099Z" transform="translate(-15.7247 -85.3277)"/><path class="cls-3" d="M386.11029,114.4248a6.7138,6.7138,0,1,1,6.71371-6.7137A6.72138,6.72138,0,0,1,386.11029,114.4248Zm0-11.3213a4.60755,4.60755,0,1,0,4.6074,4.6076A4.61272,4.61272,0,0,0,386.11029,103.1035Z" transform="translate(-15.7247 -85.3277)"/><path class="cls-4" d="M394.40529,136.2415a1.05311,1.05311,0,0,1-1.0531-1.0531v-4.6443a1.0531,1.0531,0,1,1,2.1062,0v4.6443A1.05311,1.05311,0,0,1,394.40529,136.2415Z" transform="translate(-15.7247 -85.3277)"/><path class="cls-4" d="M394.40529,144.3689a1.05311,1.05311,0,0,1-1.0531-1.0531v-4.6442a1.0531,1.0531,0,0,1,2.1062,0v4.6442A1.05311,1.05311,0,0,1,394.40529,144.3689Z" transform="translate(-15.7247 -85.3277)"/><path class="cls-4" d="M400.92419,137.9831h-4.172a1.0531,1.0531,0,1,1,0-2.1062h4.172a1.0531,1.0531,0,0,1,0,2.1062Z" transform="translate(-15.7247 -85.3277)"/><path class="cls-4" d="M392.05839,137.9831h-4.172a1.0531,1.0531,0,1,1,0-2.1062h4.172a1.0531,1.0531,0,1,1,0,2.1062Z" transform="translate(-15.7247 -85.3277)"/><path class="cls-2" d="M358.94339,108.1069a1.05318,1.05318,0,0,1-1.0531-1.0531v-4.6444a1.0531,1.0531,0,1,1,2.1062,0v4.6444A1.05318,1.05318,0,0,1,358.94339,108.1069Z" transform="translate(-15.7247 -85.3277)"/><path class="cls-2" d="M358.94339,116.2343a1.05318,1.05318,0,0,1-1.0531-1.0531V110.537a1.0531,1.0531,0,1,1,2.1062,0v4.6442A1.05318,1.05318,0,0,1,358.94339,116.2343Z" transform="translate(-15.7247 -85.3277)"/><path class="cls-2" d="M365.46229,109.8485h-4.172a1.05315,1.05315,0,0,1,0-2.1063h4.172a1.05315,1.05315,0,1,1,0,2.1063Z" transform="translate(-15.7247 -85.3277)"/><path class="cls-2" d="M356.59649,109.8485h-4.172a1.05315,1.05315,0,0,1,0-2.1063h4.172a1.05315,1.05315,0,0,1,0,2.1063Z" transform="translate(-15.7247 -85.3277)"/><path class="cls-4" d="M87.56839,102.0816a6.71375,6.71375,0,1,1,6.7137,6.7137A6.72153,6.72153,0,0,1,87.56839,102.0816Zm2.1063,0a4.60745,4.60745,0,1,0,4.6074-4.6076A4.61266,4.61266,0,0,0,89.67469,102.0816Z" transform="translate(-15.7247 -85.3277)"/><path class="cls-3" d="M60.60659,127.6719a6.71371,6.71371,0,1,1,6.7137,6.7137A6.72147,6.72147,0,0,1,60.60659,127.6719Zm2.1062,0a4.6075,4.6075,0,1,0,4.6075-4.6076A4.61261,4.61261,0,0,0,62.71279,127.6719Z" transform="translate(-15.7247 -85.3277)"/><path class="cls-4" d="M46.6484,137.0934a1.0532,1.0532,0,0,0,1.0531-1.0532v-4.6443a1.0531,1.0531,0,1,0-2.1062,0v4.6443A1.0532,1.0532,0,0,0,46.6484,137.0934Z" transform="translate(-15.7247 -85.3277)"/><path class="cls-4" d="M46.6484,145.2208a1.0532,1.0532,0,0,0,1.0531-1.0532v-4.6442a1.0531,1.0531,0,1,0-2.1062,0v4.6442A1.0532,1.0532,0,0,0,46.6484,145.2208Z" transform="translate(-15.7247 -85.3277)"/><path class="cls-4" d="M40.1295,138.835h4.172a1.05315,1.05315,0,0,0,0-2.1063h-4.172a1.05315,1.05315,0,1,0,0,2.1063Z" transform="translate(-15.7247 -85.3277)"/><path class="cls-4" d="M48.99529,138.835h4.172a1.05315,1.05315,0,0,0,0-2.1063h-4.172a1.05315,1.05315,0,0,0,0,2.1063Z" transform="translate(-15.7247 -85.3277)"/><path class="cls-2" d="M70.91479,101.3931a1.05318,1.05318,0,0,0,1.0531-1.0531V95.6956a1.0531,1.0531,0,0,0-2.1062,0V100.34A1.05318,1.05318,0,0,0,70.91479,101.3931Z" transform="translate(-15.7247 -85.3277)"/><path class="cls-2" d="M70.91479,109.5205a1.05318,1.05318,0,0,0,1.0531-1.0531v-4.6442a1.0531,1.0531,0,1,0-2.1062,0v4.6442A1.05318,1.05318,0,0,0,70.91479,109.5205Z" transform="translate(-15.7247 -85.3277)"/><path class="cls-2" d="M64.39589,103.1347h4.172a1.05315,1.05315,0,0,0,0-2.1063h-4.172a1.05315,1.05315,0,1,0,0,2.1063Z" transform="translate(-15.7247 -85.3277)"/><path class="cls-2" d="M73.26169,103.1347h4.172a1.05315,1.05315,0,0,0,0-2.1063h-4.172a1.05315,1.05315,0,0,0,0,2.1063Z" transform="translate(-15.7247 -85.3277)"/><path class="cls-1" d="M271.68989,102.5641a.74688.74688,0,0,1-.3686-.0548c-1.27829-.5395-2.0272-.791-2.0348-.7935a.74785.74785,0,0,1,.4734-1.4188c.0323.0109.8046.2697,2.1429.8343a.74783.74783,0,0,1-.2129,1.4328Z" transform="translate(-15.7247 -85.3277)"/><path class="cls-1" d="M309.79909,142.6725c.5086,1.3566.98491,2.7557,1.416,4.1587a.74845.74845,0,0,0,.7927.5243.75808.75808,0,0,0,.1419-.0291.7477.7477,0,0,0,.495-.9344c-.43969-1.4317-.9261-2.8596-1.445-4.2444a.74786.74786,0,0,0-1.4006.5249Z" transform="translate(-15.7247 -85.3277)"/><path class="cls-1" d="M312.38019,151.068c.3427,1.4049.6525,2.8513.9206,4.299a.74793.74793,0,0,0,.81321.6074c.01919-.002.03869-.0049.05849-.0083a.74819.74819,0,0,0,.599-.8716c-.2732-1.475-.589-2.9489-.9381-4.3807a.74787.74787,0,0,0-1.4532.3542Z" transform="translate(-15.7247 -85.3277)"/><path class="cls-1" d="M315.53449,173.6499a.74768.74768,0,0,0,.668-.732c.023-1.5003.0123-3.0059-.0323-4.4746a.74769.74769,0,1,0-1.4947.045c.0437,1.4464.0542,2.929.0317,4.4067a.74775.74775,0,0,0,.7363.759A.7074.7074,0,0,0,315.53449,173.6499Z" transform="translate(-15.7247 -85.3277)"/><path class="cls-1" d="M314.62849,158.873a.74764.74764,0,0,0-.645.8381c.0878.676.168,1.3589.2386,2.03.0817.7744.1545,1.5648.21591,2.3487a.74772.74772,0,0,0,.804.6871l.02029-.002a.74768.74768,0,0,0,.6665-.802c-.0625-.7974-.1363-1.6012-.2194-2.3886-.0718-.6828-.1536-1.378-.2432-2.0662a.74752.74752,0,0,0-.8195-.6472Z" transform="translate(-15.7247 -85.3277)"/><path class="cls-1" d="M308.131,138.6096a.7478.7478,0,0,0,1.36519-.6108c-.6094-1.3619-1.269-2.7196-1.9607-4.035a.74783.74783,0,0,0-1.3239.6959C306.88909,135.9476,307.53449,137.2764,308.131,138.6096Z" transform="translate(-15.7247 -85.3277)"/><path class="cls-1" d="M275.29339,104.3675c1.2841.6562,2.5799,1.3705,3.85161,2.1235a.74786.74786,0,0,0,.76209-1.287c-1.2982-.7687-2.6218-1.4981-3.9334-2.1684a.74779.74779,0,1,0-.6803,1.3319Z" transform="translate(-15.7247 -85.3277)"/><path class="cls-1" d="M286.437,111.4088a.74782.74782,0,0,0,.90759-1.1888c-1.1843-.9038-2.4103-1.7843-3.6444-2.6169a.74766.74766,0,1,0-.8363,1.2396C284.07389,109.6591,285.27619,110.5226,286.437,111.4088Z" transform="translate(-15.7247 -85.3277)"/><path class="cls-1" d="M299.00189,123.6518a.74767.74767,0,1,0,1.1672-.9347c-.929-1.1605-1.90909-2.3088-2.9127-3.4133a.74781.74781,0,1,0-1.1069,1.0058C297.13239,121.3912,298.09179,122.5158,299.00189,123.6518Z" transform="translate(-15.7247 -85.3277)"/><path class="cls-1" d="M293.09459,117.1497a.74783.74783,0,1,0,1.0433-1.0717c-1.0634-1.0349-2.1767-2.0544-3.3096-3.0306a.7477.7477,0,0,0-.9761,1.1329C290.96209,115.1368,292.05309,116.1358,293.09459,117.1497Z" transform="translate(-15.7247 -85.3277)"/><path class="cls-1" d="M304.04509,130.8399a.74761.74761,0,1,0,1.2762-.7791c-.7759-1.2714-1.60329-2.5342-2.4585-3.7538a.74782.74782,0,1,0-1.2245.8588C302.47549,128.3596,303.28519,129.5957,304.04509,130.8399Z" transform="translate(-15.7247 -85.3277)"/><polygon class="cls-3" points="255.951 12.12 259.223 0 219.125 0.345 255.951 12.12"/><polygon class="cls-4" points="219.125 0.343 254.004 15.046 254.096 15.086 255.597 17.572 255.951 12.12 219.125 0.343"/><polygon class="cls-4" points="255.597 17.572 252.346 17.059 254.096 15.086 255.597 17.572"/><polygon class="cls-3" points="249.708 13.236 254.098 15.086 245.058 25.271 219.125 0.345 249.708 13.236"/><path class="cls-2" d="M36.75108,323.3529h395.9477a7.6318,7.6318,0,0,1,7.6318,7.6318v.7308a7.6318,7.6318,0,0,1-7.6318,7.6318H36.7486a7.6318,7.6318,0,0,1-7.6318-7.6318v-.72832a7.63428,7.63428,0,0,1,7.63428-7.63428Z"/><path class="cls-4" d="M456.05528,416.3124v.3654H44.8415v-.3654a7.63119,7.63119,0,0,1,7.63179-7.6318H448.421A7.63339,7.63339,0,0,1,456.05528,416.3124Z" transform="translate(-15.7247 -85.3277)"/><rect class="cls-5" x="165.5528" y="223.5045" width="135.1471" height="75.8385" rx="5.381" ry="5.381"/><rect class="cls-6" x="222.66109" y="299.257" width="20.9305" height="23.8605"/><circle class="cls-13" cx="232.89279" cy="262.3534" r="10.3879"/><path class="cls-5" d="M212.44359,314.6528H253.1403a6.64539,6.64539,0,0,1,6.64539,6.64539v1.81931a0,0,0,0,1,0,0h-53.9876a0,0,0,0,1,0,0v-1.8192A6.6455,6.6455,0,0,1,212.44359,314.6528Z"/></svg>